<?xml version='1.0' encoding='utf-8'?>
<svg xmlns="http://www.w3.org/2000/svg" clip-rule="evenodd" fill-rule="evenodd" stroke-linejoin="round" stroke-miterlimit="2" version="1.1" viewBox="0 0 20834 20834"> <path d="m20100 10525v-108.33h-2470.8v108.33h2470.8zm-2.118-338.01-3.781-108.27-2469.3 86.231 3.781 108.27 2469.3-86.23zm-13.913-337.73-7.557-108.07-2464.8 172.36 7.557 108.07 2464.8-172.36zm-25.691-337.04-11.324-107.74-2457.3 258.27 11.324 107.74 2457.3-258.27zm-37.438-335.94-15.078-107.28-2446.8 343.87 15.077 107.28 2446.8-343.87zm-49.14-334.42-18.812-106.69-2433.3 429.06 18.811 106.69 2433.3-429.06zm-60.78-332.51-22.524-105.97-2416.8 513.72 22.524 105.97 2416.8-513.72zm-72.348-330.18-26.208-105.12-2397.4 597.75 26.208 105.12 2397.4-597.75zm-83.827-327.46-29.861-104.14-2375.1 681.05 29.86 104.14 2375.1-681.05zm-95.204-324.33-33.477-103.03-2349.9 763.53 33.477 103.03 2349.9-763.53zm-106.46-320.81-37.052-101.8-2321.8 845.07 37.052 101.8 2321.8-845.07zm-117.6-316.9-40.582-100.44-2290.9 925.59 40.583 100.44 2290.9-925.59zm-128.58-312.6-44.063-98.968-2257.2 1005 44.063 98.967 2257.2-1005zm-139.42-307.93-47.49-97.369-2220.8 1083.1 47.49 97.369 2220.8-1083.1zm-150.08-302.87-50.859-95.653-2181.6 1160 50.86 95.653 2181.6-1160zm-160.56-297.45-54.167-93.819-2139.8 1235.4 54.167 93.819 2139.8-1235.4zm-170.84-291.66-57.408-91.872-2095.4 1309.3 57.407 91.872 2095.4-1309.3zm-180.91-285.53-60.579-89.813-2048.4 1381.7 60.579 89.812 2048.4-1381.7zm-190.77-279.04-63.677-87.644-1999 1452.3 63.676 87.643 1999-1452.3zm-200.39-272.21-66.697-85.368-1947 1521.2 66.697 85.368 1947-1521.2zm-209.77-265.05-69.636-82.988-1892.8 1588.2 69.636 82.988 1892.8-1588.2zm-218.89-257.57-72.489-80.507-1836.2 1653.3 72.489 80.508 1836.2-1653.3zm-227.75-249.77-75.254-77.929-1777.4 1716.4 75.255 77.929 1777.4-1716.4zm-236.32-241.67-77.929-75.254-1716.4 1777.4 77.929 75.255 1716.4-1777.4zm-244.62-233.28-80.508-72.489-1653.3 1836.2 80.508 72.489 1653.3-1836.2zm-252.61-224.6-82.989-69.635-1588.2 1892.8 82.988 69.635 1588.2-1892.8zm-260.29-215.64-85.368-66.697-1521.2 1947 85.368 66.697 1521.2-1947zm-267.66-206.43-87.644-63.677-1452.3 1999 87.643 63.676 1452.3-1999zm-274.7-196.96-89.812-60.579-1381.7 2048.4 89.813 60.579 1381.7-2048.4zm-281.41-187.26-91.871-57.408-1309.3 2095.4 91.872 57.408 1309.3-2095.4zm-287.77-177.32-93.82-54.167-1235.4 2139.8 93.819 54.167 1235.4-2139.8zm-293.78-167.17-95.653-50.859-1160 2181.6 95.653 50.86 1160-2181.6zm-299.44-156.82-97.369-47.491-1083.1 2220.8 97.369 47.49 1083.1-2220.8zm-304.73-146.27-98.968-44.064-1005 2257.2 98.967 44.063 1005-2257.2zm-309.65-135.55-100.44-40.583-925.59 2290.9 100.44 40.582 925.59-2290.9zm-314.19-124.66-101.8-37.052-845.08 2321.8 101.8 37.052 845.08-2321.8zm-318.35-113.62-103.03-33.477-763.53 2349.9 103.03 33.476 763.53-2349.9zm-322.12-102.44-104.14-29.861-681.05 2375.1 104.14 29.86 681.05-2375.1zm-325.5-91.132-105.12-26.208-597.75 2397.4 105.12 26.208 597.75-2397.4zm-328.48-79.717-105.97-22.524-513.72 2416.8 105.97 22.524 513.72-2416.8zm-331.06-68.204-106.69-18.812-429.06 2433.3 106.69 18.812 429.06-2433.3zm-333.24-56.609-107.28-15.077-343.87 2446.8 107.28 15.077 343.87-2446.8zm-335.02-44.944-107.74-11.324-258.27 2457.3 107.74 11.324 258.27-2457.3zm-336.38-33.226-108.07-7.557-172.36 2464.8 108.07 7.557 172.36-2464.8zm-337.33-21.465-108.27-3.781-86.231 2469.3 108.27 3.781 86.23-2469.3zm-337.88-9.68h-108.33v2470.8h108.33v-2470.8z"/> <path d="m15147 10525v-52.922h-1207v52.922h1207zm-1.035-165.12-1.847-52.89-1206.3 42.125 1.847 52.889 1206.3-42.124zm-6.796-164.98-3.692-52.793-1204.1 84.198 3.692 52.793 1204.1-84.198zm-12.551-164.65-5.532-52.632-1200.4 126.17 5.532 52.632 1200.4-126.17zm-18.289-164.11-7.365-52.407-1195.3 167.99 7.366 52.407 1195.3-167.99zm-24.005-163.37-9.19-52.118-1188.7 209.6 9.189 52.118 1188.7-209.6zm-29.692-162.43-11.003-51.766-1180.6 250.96 11.003 51.765 1180.6-250.96zm-35.342-161.3-12.803-51.35-1171.2 292.01 12.803 51.35 1171.2-292.01zm-40.951-159.97-14.587-50.872-1160.3 332.7 14.587 50.872 1160.3-332.7zm-46.508-158.44-16.354-50.331-1148 372.99 16.354 50.332 1148-372.99zm-52.009-156.72-18.101-49.73-1134.2 412.83 18.1 49.73 1134.2-412.83zm-57.447-154.81-19.825-49.068-1119.1 452.16 19.825 49.068 1119.1-452.16zm-62.815-152.71-21.526-48.347-1102.7 490.94 21.525 48.347 1102.7-490.94zm-68.106-150.42-23.2-47.566-1084.9 529.13 23.2 47.566 1084.9-529.13zm-73.315-147.96-24.845-46.728-1065.7 566.67 24.846 46.727 1065.7-566.66zm-78.433-145.31-26.461-45.832-1045.3 603.52 26.461 45.831 1045.3-603.51zm-83.457-142.48-28.044-44.88-1023.6 639.63 28.044 44.881 1023.6-639.63zm-88.378-139.48-29.594-43.874-1000.7 674.96 29.593 43.875 1000.7-674.96zm-93.192-136.31-31.107-42.815-976.51 709.47 31.107 42.815 976.51-709.47zm-97.893-132.98-32.582-41.703-951.15 743.12 32.582 41.703 951.15-743.12zm-102.47-129.48-34.018-40.541-924.64 775.86 34.017 40.541 924.64-775.86zm-106.93-125.82-35.412-39.329-897 807.66 35.412 39.328 897-807.66zm-111.26-122.02-36.763-38.069-868.26 838.47 36.763 38.068 868.26-838.47zm-115.45-118.06-38.068-36.763-838.47 868.26 38.069 36.763 838.47-868.26zm-119.5-113.96-39.328-35.412-807.66 897 39.329 35.412 807.66-897zm-123.4-109.72-40.541-34.017-775.86 924.64 40.54 34.018 775.86-924.64zm-127.16-105.34-41.703-32.582-743.12 951.15 41.703 32.582 743.12-951.15zm-130.76-100.84-42.814-31.107-709.47 976.51 42.815 31.107 709.47-976.51zm-134.19-96.219-43.874-29.594-674.96 1000.7 43.875 29.594 674.96-1000.7zm-137.47-91.477-44.88-28.044-639.63 1023.6 44.881 28.044 639.63-1023.6zm-140.58-86.623-45.832-26.461-603.51 1045.3 45.832 26.461 603.51-1045.3zm-143.52-81.665-46.728-24.845-566.66 1065.7 46.727 24.846 566.67-1065.7zm-146.28-76.606-47.565-23.2-529.13 1084.9 47.566 23.2 529.13-1084.9zm-148.86-71.454-48.347-21.526-490.94 1102.7 48.346 21.526 490.94-1102.7zm-151.27-66.216-49.068-19.825-452.16 1119.1 49.069 19.825 452.16-1119.1zm-153.48-60.896-49.73-18.101-412.83 1134.2 49.73 18.1 412.83-1134.2zm-155.52-55.503-50.332-16.354-372.99 1148 50.332 16.353 372.99-1148zm-157.36-50.041-50.872-14.587-332.7 1160.3 50.872 14.587 332.7-1160.3zm-159.01-44.519-51.35-12.803-292.01 1171.2 51.35 12.803 292.01-1171.2zm-160.47-38.942-51.766-11.003-250.96 1180.6 51.766 11.004 250.96-1180.6zm-161.73-33.319-52.118-9.19-209.6 1188.7 52.118 9.19 209.6-1188.7zm-162.79-27.654-52.407-7.365-167.99 1195.3 52.407 7.366 167.99-1195.3zm-163.66-21.956-52.632-5.532-126.17 1200.4 52.633 5.532 126.17-1200.4zm-164.32-16.231-52.794-3.691-84.198 1204.1 52.794 3.691 84.198-1204.1zm-164.79-10.486-52.889-1.847-42.125 1206.3 52.89 1.847 42.124-1206.3zm-165.06-4.728h-52.922v1207h52.922v-1207z"/> <path d="m10519 1301.3c-34.096-0.382-68.195-0.574-102.29-0.574-5031.2 0-9116 4084.7-9116 9116s4084.7 9116 9116 9116c4994.7 0 9059.4-4019.3 9115.4-9013.7l-1102.1-12.368c-49.271 4390.5-3622.5 7923.9-8013.3 7923.9-4422.9 0-8013.8-3590.9-8013.8-8013.8s3590.9-8013.8 8013.8-8013.8c29.976 0 59.952 0.168 89.926 0.505l12.368-1102.1z"/> <path d="m10501 2912.3c-28.07-0.315-56.143-0.472-84.215-0.472-4142-0-7504.9 3362.8-7504.9 7504.9-0 4142 3362.8 7504.9 7504.9 7504.9 4112-0 7458.2-3308.9 7504.4-7420.6l-238.89-2.681c-44.673 3980.8-3284.4 7184.4-7265.5 7184.4-4010.2-0-7266-3255.8-7266-7266s3255.8-7266 7266-7266c27.179-0 54.357 0.152 81.534 0.457l2.681-238.89z"/> <path d="m10417 3828.5c3636.1 0 6588.2 2952.1 6588.2 6588.2s-2952.1 6588.2-6588.2 6588.2-6588.2-2952.1-6588.2-6588.2 2952.1-6588.2 6588.2-6588.2zm-0 209.73c3520.4 0 6378.5 2858.1 6378.5 6378.5s-2858.1 6378.5-6378.5 6378.5-6378.5-2858.1-6378.5-6378.5 2858.1-6378.5 6378.5-6378.5z"/> <path d="m10417 5068.1c-467.42 0-932.83 61.272-1384.3 182.25l692.16 2583.2c225.75-60.489 458.45-91.125 692.16-91.125v-2674.3z"/> <path d="m8587.3 5390.6c-439.23 159.87-855.62 376.62-1238.5 644.72l1533.9 2190.7c191.44-134.05 399.64-242.43 619.25-322.36l-914.67-2513z"/> <path d="m6978.6 6319.4c-358.07 300.45-675.2 646.55-943.31 1029.4l2190.7 1533.9c134.05-191.44 292.62-364.49 471.65-514.72l-1719-2048.6z"/> <path d="m5784.6 7742.4c-233.71 404.8-413.35 838.49-534.33 1290l2583.2 692.16c60.489-225.75 150.31-442.59 267.16-644.99l-2316-1337.2z"/> <path d="m5149.3 9487.9c-81.167 460.32-101.64 929.3-60.904 1394.9l2664.1-233.08c-20.37-232.82-10.132-467.31 30.452-697.47l-2633.7-464.39z"/> <path d="m5149.3 11345c81.167 460.32 222.32 908.02 419.87 1331.6l2423.7-1130.2c-98.771-211.81-169.35-435.66-209.93-665.82l-2633.7 464.39z"/> <path d="m5784.6 13091c233.71 404.8 519.48 777.22 850 1107.7l1891-1891c-165.26-165.26-308.14-351.47-425-553.87l-2316 1337.2z"/> <path d="m6978.6 14514c358.07 300.45 753.97 552.67 1177.6 750.21l1130.2-2423.7c-211.82-98.771-409.77-224.88-588.8-375.11l-1719 2048.6z"/> <path d="m8587.3 15443c439.23 159.87 897.53 261.47 1363.2 302.21l233.08-2664.1c-232.82-20.369-461.97-71.17-681.59-151.1l-914.67 2513z"/> <path d="m10417 15765c467.42-0 932.83-61.272 1384.3-182.25l-692.16-2583.2c-225.75 60.489-458.45 91.125-692.16 91.125v2674.3z"/> <path d="m12246 15443c439.23-159.87 855.62-376.62 1238.5-644.72l-1533.9-2190.7c-191.44 134.05-399.64 242.43-619.25 322.36l914.67 2513z"/> <path d="m13855 14514c358.07-300.45 675.2-646.55 943.3-1029.4l-2190.7-1533.9c-134.05 191.44-292.62 364.49-471.65 514.72l1719 2048.6z"/> <path d="m15049 13091c233.71-404.8 413.35-838.49 534.33-1290l-2583.2-692.16c-60.489 225.75-150.31 442.59-267.16 644.99l2316 1337.2z"/> <path d="m15684 11345c81.168-460.32 101.64-929.3 60.905-1394.9l-2664.1 233.08c20.369 232.82 10.131 467.31-30.452 697.47l2633.7 464.39z"/> <path d="m9493.1 2392.3-152.27 19.486 1024.4 8004.9 152.27-19.486-1024.4-8004.9z"/> <path d="m2905.4 7334.1-55.917 142.96 7515.8 2939.6 55.918-142.96-7515.8-2939.6z"/> <path d="m14320 17554 134.35-74.262-3904.1-7063-134.35 74.262 3904.1 7063z"/> <circle cx="10416" cy="10417" r="339.58"/> <path d="m11394 356.82c-650.14-63.174-1304.9-63.174-1955 0l-484.14 507.92c-700.9 107.25-1387.9 291.32-2048.5 548.89l-673.23-197.8c-594.63 270.36-1161.6 597.73-1693.1 977.51l-165.31 681.94c-553.37 443.33-1056.3 946.23-1499.6 1499.6l-681.94 165.31c-379.78 531.46-707.15 1098.5-977.51 1693.1l197.8 673.23c-257.57 660.62-441.64 1347.6-548.89 2048.5l-507.92 484.14c-63.174 650.14-63.174 1304.9 0 1955l507.92 484.14c107.25 700.9 291.32 1387.9 548.89 2048.5l-197.8 673.23c270.36 594.63 597.73 1161.6 977.51 1693.1l681.94 165.31c443.33 553.37 946.23 1056.3 1499.6 1499.6l165.31 681.94c531.46 379.78 1098.5 707.15 1693.1 977.51l673.23-197.8c660.62 257.57 1347.6 441.64 2048.5 548.89l484.14 507.92c650.14 63.175 1304.9 63.175 1955 0l484.14-507.92c700.9-107.25 1387.9-291.32 2048.5-548.89l673.23 197.8c594.63-270.36 1161.6-597.73 1693.1-977.51l165.31-681.94c553.37-443.33 1056.3-946.23 1499.6-1499.6l681.94-165.31c379.78-531.45 707.15-1098.5 977.51-1693.1l-197.8-673.23c257.57-660.62 441.64-1347.6 548.89-2048.5l507.92-484.14c63.175-650.14 63.175-1304.9 0-1955l-507.92-484.14c-107.25-700.9-291.32-1387.9-548.89-2048.5l197.8-673.23c-270.36-594.63-597.73-1161.6-977.51-1693.1l-681.94-165.31c-443.33-553.37-946.23-1056.3-1499.6-1499.6l-165.31-681.94c-531.45-379.78-1098.5-707.15-1693.1-977.51l-673.23 197.8c-660.62-257.57-1347.6-441.64-2048.5-548.89l-484.14-507.92zm-977.51 804.81c5108 0 9255 4147 9255 9255s-4147 9255-9255 9255-9255-4147-9255-9255 4147-9255 9255-9255z"/> </svg>