<?xml version='1.0' encoding='utf-8'?>
<svg xmlns="http://www.w3.org/2000/svg" clip-rule="evenodd" fill-rule="evenodd" stroke-linecap="round" stroke-linejoin="round" stroke-miterlimit="1.5" version="1.1" viewBox="0 0 20834 20834"> <path d="m10417 20425h-54.167v-7279.2h54.167v7279.2zm349.28-6.097-54.133 1.891-254.04-7274.7 54.133-1.89 254.04 7274.7zm-698.57 0-54.134-1.89 254.04-7274.7 54.134 1.891-254.04 7274.7zm1047.4-18.283-54.035 3.779-507.77-7261.4 54.035-3.779 507.77 7261.4zm-1396.3 0-54.035-3.778 507.77-7261.4 54.035 3.778-507.77 7261.4zm1744.3-30.447-53.87 5.662-760.88-7239.3 53.87-5.662 760.88 7239.3zm-2092.3 0-53.87-5.662 760.88-7239.3 53.87 5.662-760.88 7239.3zm2439-42.573-53.639 7.538-1013.1-7208.3 53.639-7.539 1013.1 7208.3zm-2785.8-0-53.64-7.539 1013.1-7208.3 53.639 7.538-1013.1 7208.3zm3130.8-54.649-53.344 9.406-1264-7168.6 53.343-9.406 1264 7168.6zm-3475.9-0-53.344-9.406 1264-7168.6 53.344 9.406-1264 7168.6zm3818.8-66.657-52.983 11.262-1513.4-7120.1 52.983-11.262 1513.4 7120.1zm-4161.7-0-52.983-11.262 1513.4-7120.1 52.983 11.261-1513.4 7120.1zm4502.1-78.584-52.558 13.104-1761-7062.9 52.558-13.105 1761 7062.9zm-4842.5-0-52.558-13.104 1761-7062.9 52.557 13.104-1761 7062.9zm5179.9-90.416-52.068 14.93-2006.4-6997.2 52.068-14.93 2006.4 6997.2zm-5517.3 0-52.068-14.93 2006.4-6997.2 52.068 14.93-2006.4 6997.2zm5851.4-102.14-51.516 16.739-2249.4-6922.9 51.516-16.739 2249.4 6922.9zm-6185.5 0-51.516-16.738 2249.4-6922.9 51.516 16.738-2249.4 6922.9zm6515.8-113.73-50.9 18.526-2489.6-6840.2 50.9-18.527 2489.6 6840.2zm-6846.1-0-50.9-18.526 2489.6-6840.2 50.9 18.526-2489.6 6840.2zm7172.2-125.19-50.222 20.291-2726.8-6749.1 50.222-20.291 2726.8 6749.1zm-7498.4-0-50.222-20.291 2726.8-6749.1 50.223 20.291-2726.8 6749.1zm7819.9-136.5-49.484 22.032-2960.7-6649.8 49.484-22.032 2960.7 6649.8zm-8141.5 0-49.484-22.031 2960.7-6649.8 49.484 22.031-2960.7 6649.8zm8458.1-147.64-48.684 23.745-3191-6542.5 48.685-23.746 3191 6542.5zm-8774.7 0-48.685-23.745 3191-6542.5 48.685 23.745-3191 6542.5zm9086-158.6-47.827 25.43-3417.4-6427.1 47.827-25.43 3417.4 6427.1zm-9397.3 0-47.827-25.429 3417.4-6427.1 47.827 25.43-3417.4 6427.1zm9702.8-169.36-46.909 27.083-3639.6-6303.9 46.91-27.084 3639.6 6303.9zm-10008-0-46.91-27.084 3639.6-6303.9 46.909 27.083-3639.6 6303.9zm10308-179.92-45.936 28.704-3857.4-6173.1 45.936-28.704 3857.4 6173.1zm-10607-0-45.936-28.704 3857.4-6173.1 45.936 28.704-3857.4 6173.1zm10900-190.26-44.907 30.29-4070.5-6034.7 44.906-30.29 4070.5 6034.7zm-11193 0-44.907-30.29 4070.5-6034.7 44.906 30.289-4070.5 6034.7zm11479-200.37-43.821 31.839-4278.6-5889 43.822-31.838 4278.6 5889zm-11766 0-43.822-31.838 4278.6-5889 43.822 31.838-4278.6 5889zm12044-210.24-42.684 33.348-4481.5-5736.1 42.683-33.349 4481.5 5736.1zm-12324-0-42.684-33.348 4481.5-5736.1 42.684 33.348-4481.5 5736.1zm12595-219.85-41.494 34.817-4679-5576.2 41.494-34.817 4679 5576.2zm-12866-0-41.494-34.818 4679-5576.2 41.494 34.818-4679 5576.2zm13130-229.19-40.254 36.244-4870.7-5409.5 40.254-36.244 4870.7 5409.5zm-13394-0-40.254-36.245 4870.7-5409.5 40.254 36.245-4870.7 5409.5zm13649-238.25-38.964 37.627-5056.5-5236.2 38.964-37.627 5056.5 5236.2zm-13905 0-38.964-37.627 5056.5-5236.2 38.964 37.627-5056.5 5236.2zm14152-247.02-37.627 38.964-5236.2-5056.5 37.627-38.964 5236.2 5056.5zm-14399 0-37.627-38.964 5236.2-5056.5 37.627 38.964-5236.2 5056.5zm14637-255.49-36.245 40.253-5409.5-4870.7 36.245-40.253 5409.5 4870.7zm-14875-0-36.245-40.254 5409.5-4870.7 36.245 40.254-5409.5 4870.7zm15104-263.65-34.818 41.494-5576.2-4679 34.818-41.494 5576.2 4679zm-15334 0-34.818-41.494 5576.2-4679 34.818 41.494-5576.2 4679zm15554-271.49-33.348 42.684-5736.1-4481.5 33.348-42.684 5736.1 4481.5zm-15773-0-33.348-42.684 5736.1-4481.5 33.348 42.683-5736.1 4481.5zm15984-279-31.838 43.822-5889-4278.6 31.838-43.821 5889 4278.6zm-16194 0-31.838-43.821 5889-4278.6 31.838 43.822-5889 4278.6zm16394-286.16-30.29 44.906-6034.7-4070.5 30.289-44.907 6034.7 4070.5zm-16595-0-30.289-44.907 6034.7-4070.5 30.29 44.906-6034.7 4070.5zm16785-292.98-28.704 45.936-6173.1-3857.4 28.704-45.936 6173.1 3857.4zm-16975 0-28.704-45.936 6173.1-3857.4 28.704 45.936-6173.1 3857.4zm17155-299.44-27.084 46.91-6303.9-3639.6 27.083-46.91 6303.9 3639.6zm-17335 0-27.084-46.909 6303.9-3639.6 27.083 46.91-6303.9 3639.6zm17504-305.54-25.429 47.826-6427.1-3417.4 25.43-47.826 6427.1 3417.4zm-17674-0-25.43-47.827 6427.1-3417.4 25.43 47.827-6427.1 3417.4zm17832-311.26-23.745 48.685-6542.5-3191 23.745-48.684 6542.5 3191zm-17991 0-23.745-48.684 6542.5-3191 23.745 48.685-6542.5 3191zm18138-316.61-22.031 49.483-6649.8-2960.7 22.031-49.483 6649.8 2960.7zm-18286-0-22.031-49.484 6649.8-2960.7 22.032 49.484-6649.8 2960.7zm18423-321.57-20.291 50.223-6749.1-2726.8 20.291-50.223 6749.1 2726.8zm-18559 0-20.292-50.222 6749.1-2726.8 20.291 50.222-6749.1 2726.8zm18684-326.14-18.526 50.9-6840.2-2489.6 18.526-50.9 6840.2 2489.6zm-18810 0-18.526-50.9 6840.2-2489.6 18.526 50.9-6840.2 2489.6zm18923-330.31-16.738 51.515-6922.9-2249.4 16.738-51.515 6922.9 2249.4zm-19037-0-16.738-51.516 6922.9-2249.4 16.738 51.516-6922.9 2249.4zm19139-334.08-14.93 52.069-6997.2-2006.4 14.93-52.068 6997.2 2006.4zm-19241 0-14.93-52.068 6997.2-2006.4 14.93 52.068-6997.2 2006.4zm19332-337.44-13.104 52.557-7062.9-1761 13.104-52.558 7062.9 1761zm-19422-0-13.104-52.558 7062.9-1761 13.104 52.558-7062.9 1761zm19501-340.39-11.262 52.983-7120.1-1513.4 11.261-52.983 7120.1 1513.4zm-19579 0-11.261-52.983 7120.1-1513.4 11.262 52.983-7120.1 1513.4zm19646-342.92-9.406 53.343-7168.6-1264 9.406-53.344 7168.6 1264zm-19713-0-9.406-53.344 7168.6-1264 9.406 53.343-7168.6 1264zm19767-345.04-7.539 53.64-7208.3-1013.1 7.538-53.64 7208.3 1013.1zm-19822 0-7.539-53.639 7208.3-1013.1 7.538 53.639-7208.3 1013.1zm19864-346.74-5.662 53.87-7239.3-760.88 5.662-53.87 7239.3 760.88zm-19907 0-5.662-53.87 7239.3-760.88 5.662 53.87-7239.3 760.88zm19938-348.01-3.778 54.034-7261.4-507.77 3.778-54.034 7261.4 507.77zm-19968-0-3.778-54.035 7261.4-507.77 3.778 54.035-7261.4 507.77zm19986-348.86-1.89 54.134-7274.7-254.04 1.891-54.134 7274.7 254.04zm-20004 0-1.89-54.133 7274.7-254.04 1.891 54.133-7274.7 254.04zm20011-349.28v54.166h-7279.2v-54.166h7279.2zm-20017-0v-54.167h7279.2v54.167h-7279.2zm20011-349.29 1.891 54.134-7274.7 254.04-1.89-54.134 7274.7-254.04zm-20004-0 1.891-54.134 7274.7 254.04-1.89 54.134-7274.7-254.04zm19986-348.86 3.779 54.034-7261.4 507.77-3.779-54.034 7261.4-507.77zm-19968-0 3.779-54.035 7261.4 507.77-3.779 54.035-7261.4-507.77zm19938-348.01 5.662 53.87-7239.3 760.88-5.662-53.87 7239.3-760.88zm-19907-0 5.662-53.87 7239.3 760.88-5.662 53.87-7239.3-760.88zm19864-346.74 7.538 53.639-7208.3 1013.1-7.539-53.64 7208.3-1013.1zm-19822-0 7.538-53.64 7208.3 1013.1-7.539 53.639-7208.3-1013.1zm19767-345.04 9.406 53.344-7168.6 1264-9.406-53.344 7168.6-1264zm-19713-0 9.406-53.344 7168.6 1264-9.406 53.344-7168.6-1264zm19646-342.92 11.262 52.983-7120.1 1513.4-11.262-52.983 7120.1-1513.4zm-19579 0 11.262-52.983 7120.1 1513.4-11.262 52.983-7120.1-1513.4zm19501-340.38 13.104 52.557-7062.9 1761-13.105-52.558 7062.9-1761zm-19422-0 13.104-52.558 7062.9 1761-13.104 52.557-7062.9-1761zm19332-337.44 14.93 52.068-6997.2 2006.4-14.93-52.069 6997.2-2006.4zm-19241 0 14.931-52.068 6997.2 2006.4-14.931 52.068-6997.2-2006.4zm19139-334.07 16.739 51.515-6922.9 2249.4-16.739-51.515 6922.9-2249.4zm-19037-0 16.738-51.516 6922.9 2249.4-16.738 51.516-6922.9-2249.4zm18923-330.31 18.526 50.9-6840.2 2489.6-18.527-50.9 6840.2-2489.6zm-18810 0 18.526-50.9 6840.2 2489.6-18.526 50.9-6840.2-2489.6zm18684-326.14 20.291 50.222-6749.1 2726.8-20.291-50.222 6749.1-2726.8zm-18559 0 20.291-50.222 6749.1 2726.8-20.292 50.223-6749.1-2726.8zm18423-321.57 22.032 49.483-6649.8 2960.7-22.032-49.483 6649.8-2960.7zm-18286-0 22.032-49.484 6649.8 2960.7-22.031 49.484-6649.8-2960.7zm18138-316.61 23.745 48.685-6542.5 3191-23.746-48.684 6542.5-3191zm-17991 0 23.745-48.685 6542.5 3191-23.745 48.685-6542.5-3191zm17832-311.26 25.43 47.826-6427.1 3417.4-25.43-47.826 6427.1-3417.4zm-17674-0 25.43-47.827 6427.1 3417.4-25.429 47.827-6427.1-3417.4zm17504-305.54 27.083 46.91-6303.9 3639.6-27.084-46.91 6303.9-3639.6zm-17335-0 27.083-46.91 6303.9 3639.6-27.083 46.909-6303.9-3639.6zm17155-299.44 28.704 45.936-6173.1 3857.4-28.704-45.936 6173.1-3857.4zm-16975 0 28.704-45.936 6173.1 3857.4-28.704 45.936-6173.1-3857.4zm16785-292.98 30.29 44.906-6034.7 4070.5-30.29-44.906 6034.7-4070.5zm-16595-0 30.29-44.907 6034.7 4070.5-30.29 44.906-6034.7-4070.5zm16394-286.16 31.839 43.822-5889 4278.6-31.838-43.822 5889-4278.6zm-16194-0 31.838-43.822 5889 4278.6-31.839 43.822-5889-4278.6zm15984-279 33.348 42.684-5736.1 4481.5-33.349-42.684 5736.1-4481.5zm-15773 0 33.349-42.684 5736.1 4481.5-33.348 42.684-5736.1-4481.5zm15554-271.49 34.817 41.494-5576.2 4679-34.817-41.494 5576.2-4679zm-15334 0 34.817-41.494 5576.2 4679-34.817 41.494-5576.2-4679zm15104-263.65 36.244 40.253-5409.5 4870.7-36.244-40.253 5409.5-4870.7zm-14875-0 36.244-40.254 5409.5 4870.7-36.244 40.254-5409.5-4870.7zm14637-255.49 37.627 38.964-5236.2 5056.5-37.627-38.964 5236.2-5056.5zm-14399 0 37.627-38.964 5236.2 5056.5-37.628 38.964-5236.2-5056.5zm14152-247.02 38.964 37.627-5056.5 5236.2-38.964-37.628 5056.5-5236.2zm-13905 0 38.964-37.627 5056.5 5236.2-38.964 37.627-5056.5-5236.2zm13649-238.25 40.253 36.244-4870.7 5409.5-40.253-36.244 4870.7-5409.5zm-13394-0 40.253-36.245 4870.7 5409.5-40.253 36.245-4870.7-5409.5zm13130-229.19 41.494 34.817-4679 5576.2-41.494-34.817 4679-5576.2zm-12866-0 41.494-34.818 4679 5576.2-41.494 34.818-4679-5576.2zm12595-219.85 42.684 33.349-4481.5 5736.1-42.684-33.348 4481.5-5736.1zm-12324 0 42.684-33.348 4481.5 5736.1-42.684 33.348-4481.5-5736.1zm12044-210.24 43.822 31.838-4278.6 5889-43.821-31.839 4278.6-5889zm-11766-0 43.822-31.838 4278.6 5889-43.822 31.838-4278.6-5889zm11479-200.37 44.906 30.29-4070.5 6034.7-44.907-30.29 4070.5-6034.7zm-11193 0 44.906-30.289 4070.5 6034.7-44.906 30.29-4070.5-6034.7zm10900-190.26 45.936 28.704-3857.4 6173.1-45.936-28.704 3857.4-6173.1zm-10607-0 45.936-28.704 3857.4 6173.1-45.936 28.704-3857.4-6173.1zm10308-179.92 46.91 27.083-3639.6 6303.9-46.91-27.083 3639.6-6303.9zm-10008-0 46.91-27.084 3639.6 6303.9-46.91 27.083-3639.6-6303.9zm9702.8-169.36 47.826 25.43-3417.4 6427.1-47.826-25.429 3417.4-6427.1zm-9397.3-0 47.826-25.43 3417.4 6427.1-47.826 25.43-3417.4-6427.1zm9086-158.6 48.685 23.745-3191 6542.5-48.684-23.745 3191-6542.5zm-8774.7 0 48.685-23.745 3191 6542.5-48.684 23.745-3191-6542.5zm8458.1-147.64 49.483 22.032-2960.7 6649.8-49.483-22.031 2960.7-6649.8zm-8141.5 0 49.483-22.031 2960.7 6649.8-49.483 22.032-2960.7-6649.8zm7819.9-136.5 50.223 20.291-2726.8 6749.1-50.223-20.292 2726.8-6749.1zm-7498.4-0 50.222-20.292 2726.8 6749.1-50.222 20.291-2726.8-6749.1zm7172.2-125.19 50.9 18.526-2489.6 6840.2-50.9-18.526 2489.6-6840.2zm-6846.1-0 50.9-18.526 2489.6 6840.2-50.9 18.526-2489.6-6840.2zm6515.8-113.73 51.515 16.738-2249.4 6922.9-51.515-16.738 2249.4-6922.9zm-6185.5 0 51.515-16.738 2249.4 6922.9-51.515 16.738-2249.4-6922.9zm5851.4-102.14 52.069 14.931-2006.4 6997.2-52.068-14.931 2006.4-6997.2zm-5517.3 0 52.068-14.93 2006.4 6997.2-52.069 14.93-2006.4-6997.2zm5179.9-90.415 52.557 13.104-1761 7062.9-52.558-13.104 1761-7062.9zm-4842.5-0 52.557-13.104 1761 7062.9-52.558 13.104-1761-7062.9zm4502.1-78.585 52.983 11.262-1513.4 7120.1-52.983-11.262 1513.4-7120.1zm-4161.7 0 52.983-11.261 1513.4 7120.1-52.983 11.262-1513.4-7120.1zm3818.8-66.657 53.343 9.406-1264 7168.6-53.344-9.406 1264-7168.6zm-3475.9 0 53.344-9.406 1264 7168.6-53.344 9.406-1264-7168.6zm3130.8-54.648 53.64 7.538-1013.1 7208.3-53.64-7.539 1013.1-7208.3zm-2785.8-0 53.639-7.539 1013.1 7208.3-53.64 7.538-1013.1-7208.3zm2439-42.574 53.87 5.662-760.88 7239.3-53.87-5.662 760.88-7239.3zm-2092.3 0 53.87-5.662 760.88 7239.3-53.87 5.662-760.88-7239.3zm1744.3-30.447 54.034 3.779-507.77 7261.4-54.034-3.779 507.77-7261.4zm-1396.3 0 54.034-3.778 507.77 7261.4-54.034 3.778-507.77-7261.4zm1047.4-18.283 54.134 1.891-254.04 7274.7-54.134-1.89 254.04-7274.7zm-698.57 0 54.134-1.89 254.04 7274.7-54.134 1.891-254.04-7274.7zm349.29-6.097h54.166v7279.2h-54.166v-7279.2z"/> <path d="m10519 1301.3c-34.096-0.382-68.195-0.574-102.29-0.574-5031.2 0-9116 4084.7-9116 9116s4084.7 9116 9116 9116c4994.7 0 9059.4-4019.3 9115.4-9013.7l-1102.1-12.368c-49.271 4390.5-3622.5 7923.9-8013.3 7923.9-4422.9 0-8013.8-3590.9-8013.8-8013.8s3590.9-8013.8 8013.8-8013.8c29.976 0 59.952 0.168 89.926 0.505l12.368-1102.1z"/> <path d="m10501 2912.3c-28.07-0.315-56.143-0.472-84.215-0.472-4142-0-7504.9 3362.8-7504.9 7504.9-0 4142 3362.8 7504.9 7504.9 7504.9 4112-0 7458.2-3308.9 7504.4-7420.6l-238.89-2.681c-44.673 3980.8-3284.4 7184.4-7265.5 7184.4-4010.2-0-7266-3255.8-7266-7266s3255.8-7266 7266-7266c27.179-0 54.357 0.152 81.534 0.457l2.681-238.89z"/> <path d="m10417 3828.5c3636.1 0 6588.2 2952.1 6588.2 6588.2s-2952.1 6588.2-6588.2 6588.2-6588.2-2952.1-6588.2-6588.2 2952.1-6588.2 6588.2-6588.2zm-0 209.73c3520.4 0 6378.5 2858.1 6378.5 6378.5s-2858.1 6378.5-6378.5 6378.5-6378.5-2858.1-6378.5-6378.5 2858.1-6378.5 6378.5-6378.5z"/> <path d="m11394 356.82c-650.14-63.174-1304.9-63.174-1955 0l-484.14 507.92c-700.9 107.25-1387.9 291.32-2048.5 548.89l-673.23-197.8c-594.63 270.36-1161.6 597.73-1693.1 977.51l-165.31 681.94c-553.37 443.33-1056.3 946.23-1499.6 1499.6l-681.94 165.31c-379.78 531.46-707.15 1098.5-977.51 1693.1l197.8 673.23c-257.57 660.62-441.64 1347.6-548.89 2048.5l-507.92 484.14c-63.174 650.14-63.174 1304.9 0 1955l507.92 484.14c107.25 700.9 291.32 1387.9 548.89 2048.5l-197.8 673.23c270.36 594.63 597.73 1161.6 977.51 1693.1l681.94 165.31c443.33 553.37 946.23 1056.3 1499.6 1499.6l165.31 681.94c531.46 379.78 1098.5 707.15 1693.1 977.51l673.23-197.8c660.62 257.57 1347.6 441.64 2048.5 548.89l484.14 507.92c650.14 63.175 1304.9 63.175 1955 0l484.14-507.92c700.9-107.25 1387.9-291.32 2048.5-548.89l673.23 197.8c594.63-270.36 1161.6-597.73 1693.1-977.51l165.31-681.94c553.37-443.33 1056.3-946.23 1499.6-1499.6l681.94-165.31c379.78-531.45 707.15-1098.5 977.51-1693.1l-197.8-673.23c257.57-660.62 441.64-1347.6 548.89-2048.5l507.92-484.14c63.175-650.14 63.175-1304.9 0-1955l-507.92-484.14c-107.25-700.9-291.32-1387.9-548.89-2048.5l197.8-673.23c-270.36-594.63-597.73-1161.6-977.51-1693.1l-681.94-165.31c-443.33-553.37-946.23-1056.3-1499.6-1499.6l-165.31-681.94c-531.45-379.78-1098.5-707.15-1693.1-977.51l-673.23 197.8c-660.62-257.57-1347.6-441.64-2048.5-548.89l-484.14-507.92zm-977.51 804.81c5108 0 9255 4147 9255 9255s-4147 9255-9255 9255-9255-4147-9255-9255 4147-9255 9255-9255z"/> <path d="m2356.2 10417-862.5 375v-750l862.5 375z" fill="#fff" stroke="#000" stroke-width="101.16px"/> <path d="m2478.7 11816-784.28 519.08-130.24-738.61 914.52 219.53z" fill="#fff" stroke="#000" stroke-width="101.16px"/> <path d="m2842.3 13173-682.23 647.38-256.52-704.77 938.74 57.392z" fill="#fff" stroke="#000" stroke-width="101.16px"/> <path d="m3436.1 14447-559.45 756.01-375-649.52 934.45-106.49z" fill="#fff" stroke="#000" stroke-width="101.16px"/> <path d="m4241.9 15598-419.67 841.67-482.09-574.53 901.76-267.14z" fill="#fff" stroke="#000" stroke-width="101.16px"/> <path d="m5235.4 16591-267.14 901.76-574.53-482.09 841.67-419.67z" fill="#fff" stroke="#000" stroke-width="101.16px"/> <path d="m6386.3 17397-106.49 934.45-649.52-375 756.01-559.45z" fill="#fff" stroke="#000" stroke-width="101.16px"/> <path d="m7659.6 17991 57.393 938.74-704.77-256.52 647.38-682.23z" fill="#fff" stroke="#000" stroke-width="101.16px"/> <path d="m9016.8 18354 219.53 914.51-738.61-130.24 519.08-784.28z" fill="#fff" stroke="#000" stroke-width="101.16px"/> <path d="m10416 18477 375 862.5h-750l375-862.5z" fill="#fff" stroke="#000" stroke-width="101.16px"/> <path d="m11816 18354 519.08 784.28-738.61 130.24 219.53-914.51z" fill="#fff" stroke="#000" stroke-width="101.16px"/> <path d="m13173 17991 647.38 682.23-704.77 256.52 57.392-938.74z" fill="#fff" stroke="#000" stroke-width="101.16px"/> <path d="m14446 17397 756.01 559.45-649.52 375-106.49-934.45z" fill="#fff" stroke="#000" stroke-width="101.16px"/> <path d="m15597 16591 841.67 419.67-574.53 482.09-267.14-901.76z" fill="#fff" stroke="#000" stroke-width="101.16px"/> <path d="m16591 15598 901.76 267.14-482.09 574.53-419.67-841.67z" fill="#fff" stroke="#000" stroke-width="101.16px"/> <path d="m17397 14447 934.45 106.49-375 649.52-559.45-756.01z" fill="#fff" stroke="#000" stroke-width="101.16px"/> <path d="m17990 13173 938.74-57.392-256.52 704.77-682.23-647.38z" fill="#fff" stroke="#000" stroke-width="101.16px"/> <path d="m18354 11816 914.51-219.53-130.24 738.61-784.28-519.08z" fill="#fff" stroke="#000" stroke-width="101.16px"/> <path d="m2455.4 9155.8-910.54 235.46 117.33-740.77 793.22 505.31z" fill="#fff" stroke="#000" stroke-width="101.16px"/> <path d="m2750.7 7925.9-936.17 90.119 231.76-713.29 704.4 623.17z" fill="#fff" stroke="#000" stroke-width="101.16px"/> <path d="m3234.7 6757.4-938.74-57.44 340.49-668.25 598.25 725.69z" fill="#fff" stroke="#000" stroke-width="101.16px"/> <path d="m3895.6 5679-918.2-203.58 440.84-606.76 477.36 810.35z" fill="#fff" stroke="#000" stroke-width="101.16px"/> <path d="m4717 4717.3-875.04-344.71 530.33-530.33 344.71 875.04z" fill="#fff" stroke="#000" stroke-width="101.16px"/> <path d="m5678.7 3895.9-810.35-477.36 606.76-440.84 203.58 918.2z" fill="#fff" stroke="#000" stroke-width="101.16px"/> <path d="m6757.1 3235-725.69-598.25 668.26-340.49 57.439 938.74z" fill="#fff" stroke="#000" stroke-width="101.16px"/> <path d="m7925.6 2751-623.17-704.4 713.29-231.76-90.119 936.17z" fill="#fff" stroke="#000" stroke-width="101.16px"/> <path d="m9155.5 2455.7-505.31-793.22 740.77-117.33-235.46 910.54z" fill="#fff" stroke="#000" stroke-width="101.16px"/> </svg>