<?xml version='1.0' encoding='utf-8'?>
<svg xmlns="http://www.w3.org/2000/svg" enable-background="new 0 0 850.39 793.7" version="1.1" viewBox="0 0 850.39 793.7"> <path d="m473.16 219.9c-2.229-8.847-5.09-17.659-8.503-26.189l-0.16-0.397-14.784 5.916c-3.008-7.47-6.44-14.642-10.259-21.499l13.909-7.75c-4.468-8.019-9.52-15.797-15.015-23.117l-12.743 9.566c-4.805-6.401-9.981-12.441-15.487-18.101l11.42-11.109c-6.382-6.561-13.279-12.751-20.5-18.399l-9.812 12.546c-6.274-4.907-12.841-9.394-19.651-13.451l8.155-13.688c-7.864-4.686-16.126-8.884-24.557-12.477l-6.244 14.648c-7.307-3.115-14.812-5.762-22.464-7.938l4.358-15.324c-8.824-2.509-17.894-4.439-26.96-5.736l-2.255 15.761c-7.838-1.122-15.774-1.745-23.761-1.864l0.238-15.926c-9.176-0.137-18.447 0.356-27.554 1.466l1.927 15.814c-7.816 0.953-15.635 2.405-23.415 4.379l-3.917-15.44c-8.732 2.215-17.43 5.047-25.853 8.418l-0.298 0.12 5.915 14.783c-7.471 3.004-14.646 6.431-21.504 10.247l-7.74-13.912c-8.021 4.463-15.802 9.51-23.126 15.002l9.559 12.747c-6.404 4.802-12.446 9.974-18.109 15.477l-11.102-11.427c-6.564 6.377-12.758 13.271-18.411 20.491l12.54 9.819c-4.91 6.272-9.401 12.836-13.462 19.644l-13.683-8.163c-4.69 7.862-8.893 16.122-12.492 24.549l14.643 6.252c-3.119 7.305-5.77 14.809-7.95 22.46l-15.321-4.366c-2.514 8.822-4.449 17.891-5.751 26.956l15.76 2.264c-1.126 7.838-1.756 15.773-1.88 23.759l-15.925-0.247c-0.142 9.176 0.346 18.447 1.45 27.555l15.816-1.918c0.948 7.817 2.396 15.636 4.366 23.417l-15.443 3.91c2.221 8.773 5.063 17.509 8.446 25.964l0.08 0.199 14.783-5.915c3 7.473 6.423 14.65 10.235 21.51l-13.916 7.731c4.458 8.023 9.501 15.807 14.989 23.135l12.753-9.551c4.798 6.406 9.967 12.451 15.466 18.117l-11.434 11.097c6.376 6.569 13.266 12.767 20.481 18.423l9.825-12.534c6.269 4.914 12.831 9.408 19.636 13.472l-8.171 13.677c7.86 4.695 16.117 8.903 24.542 12.506l6.26-14.639c7.303 3.123 14.806 5.777 22.455 7.962l-4.375 15.318c8.82 2.519 17.888 4.459 26.953 5.766l2.273-15.76c7.837 1.131 15.771 1.767 23.758 1.895l-0.255 15.924c9.18 0.147 18.451-0.336 27.555-1.435l-1.909-15.818c7.817-0.944 15.637-2.388 23.42-4.353l3.901 15.446c8.81-2.224 17.583-5.076 26.077-8.474l0.1-0.04-5.914-14.781c7.475-2.996 14.652-6.417 21.515-10.225l7.725 13.922c8.026-4.454 15.812-9.492 23.143-14.976l-9.544-12.759c6.409-4.795 12.457-9.961 18.127-15.457l11.09 11.44c6.57-6.369 12.772-13.256 18.435-20.47l-12.528-9.832c4.918-6.266 9.414-12.826 13.483-19.629l13.672 8.178c4.7-7.857 8.913-16.112 12.52-24.536l-14.633-6.268c3.127-7.302 5.785-14.803 7.974-22.452l15.315 4.383c2.523-8.816 4.468-17.883 5.782-26.948l-15.76-2.283c1.135-7.837 1.778-15.771 1.911-23.758l15.923 0.265c0.153-9.174-0.325-18.446-1.419-27.558l-15.819 1.901c-0.939-7.818-2.379-15.638-4.34-23.421l15.449-3.887zm-204.86 46.731-22.663 9.068c-2.59-12.35 2.867-25.086 13.595-31.731l9.068 22.663zm3.896 9.737 9.068 22.663c-12.35 2.59-25.086-2.867-31.731-13.595l22.663-9.068zm9.737-3.896 22.663-9.068c2.59 12.35-2.867 25.086-13.595 31.731l-9.068-22.663zm-3.896-9.737-9.068-22.663c12.35-2.59 25.086 2.867 31.731 13.595l-22.663 9.068zm-80.328-135.97 46.445 116.08-16.228 6.493 6.893 17.227-116.19 46.491c-20.337-72.818 12.652-150.38 79.081-186.29zm119.86 299.56c-72.166 19.638-148.77-12.937-184.73-78.414l115.96-46.4 6.094 15.229 16.228-6.493 46.445 116.08zm34.953-13.986-46.446-116.08 16.228-6.493-6.094-15.229 115.96-46.4c19.136 72.208-13.857 148.64-79.651 184.2zm-50.297-172.75-6.893-17.227-16.228 6.493-46.445-116.08c72.862-19.828 150.25 13.572 185.76 80.319l-116.19 46.492z" fill="#414042"/> </svg>